<?xml version="1.0" encoding="UTF-8" standalone="no"?>
<svg
   xmlns:dc="http://purl.org/dc/elements/1.1/"
   xmlns:cc="http://creativecommons.org/ns#"
   xmlns:rdf="http://www.w3.org/1999/02/22-rdf-syntax-ns#"
   xmlns:svg="http://www.w3.org/2000/svg"
   xmlns="http://www.w3.org/2000/svg"
   width="26.458334mm"
   height="26.458334mm"
   viewBox="0 0 26.458335 26.458335"
   version="1.1"
   id="svg3719">
  <defs
     id="defs3713" />
  <metadata
     id="metadata3716">
    <rdf:RDF>
      <cc:Work
         rdf:about="">
        <dc:format>image/svg+xml</dc:format>
        <dc:type
           rdf:resource="http://purl.org/dc/dcmitype/StillImage" />
        <dc:title></dc:title>
      </cc:Work>
    </rdf:RDF>
  </metadata>
  <g
     id="layer1"
     transform="translate(-69.24051,-77.376272)">
    <circle
       id="path3723"
       cx="93.677963"
       cy="98.552376"
       style="opacity:1;vector-effect:none;fill:#222222;fill-opacity:1;stroke:none;stroke-width:0.28978413;stroke-linecap:butt;stroke-linejoin:miter;stroke-miterlimit:4;stroke-dasharray:none;stroke-dashoffset:0;stroke-opacity:0"
       r="0" />
    <path
       style="opacity:1;vector-effect:none;fill:#ececec;fill-opacity:0;stroke:#ececec;stroke-width:1.09524715;stroke-linecap:butt;stroke-linejoin:miter;stroke-miterlimit:4;stroke-dasharray:none;stroke-dashoffset:0;stroke-opacity:0"
       d="m 198.49414,310.4043 a 57.531071,57.531071 0 0 0 -44.07226,20.64062 37.018202,37.018202 0 0 1 34.11914,36.89063 37.018202,37.018202 0 0 1 -34.18946,36.87695 57.531071,57.531071 0 0 0 44.14258,20.6543 57.531071,57.531071 0 0 0 57.53125,-57.53125 57.531071,57.531071 0 0 0 -57.53125,-57.53125 z"
       transform="scale(0.26458333)"
       id="path3723-0" />
  </g>
  <path
     id="path815"
     transform="scale(0.26458335)"
     d="M 50 0 A 49.999998 49.999998 0 0 0 12.333984 17.169922 A 32.909724 32.909724 0 0 1 43.636719 50 A 32.909724 32.909724 0 0 1 12.390625 82.851562 A 49.999998 49.999998 0 0 0 50 100 A 49.999998 49.999998 0 0 0 100 50 A 49.999998 49.999998 0 0 0 50 0 z "
     style="fill:#222220;fill-opacity:1;stroke:none;stroke-width:1" />
</svg>
