<svg id="Capa_1" enable-background="new 0 0 512.001 512.001" height="512" viewBox="0 0 512.001 512.001" width="512" xmlns="http://www.w3.org/2000/svg"><path d="m324.724 512.001h-50.246c-38.735 0-70.249-31.514-70.249-70.249 0-19.316-6.535-38.348-18.4-53.589l-69.356-89.092c-26.742-34.352-41.469-77.245-41.469-120.778 0-63.077 33.822-122.046 88.269-153.896 26.552-15.532 56.845-23.963 87.604-24.38 30.739-.439 61.269 7.187 88.232 21.992l.317.174c60.186 33.047 97.572 96.228 97.572 164.886v42.878c0 24.021-3.419 47.89-10.161 70.948l-22.908 78.329c-5.942 20.317-8.955 41.354-8.955 62.527-.001 38.737-31.514 70.25-70.25 70.25z" fill="#ffbda8"/><path d="m339.425 22.184-.317-.174c-25.464-13.982-54.109-21.552-83.107-21.981v509.489c5.892 1.608 12.083 2.484 18.478 2.484h50.246c38.735 0 70.249-31.514 70.249-70.249 0-21.173 3.013-42.21 8.955-62.527l22.908-78.329c6.742-23.058 10.161-46.927 10.161-70.948v-42.879c0-68.658-37.387-131.838-97.573-164.886z" fill="#faa68c"/><path d="m347.018 301.372c-10.762-3.699-19.477-11.831-23.91-22.311l-9.913-23.431c-1.868-4.416-.288-9.489 3.757-12.063l38.579-24.552c6.988-4.448-9.117-29.757-16.107-25.31l-38.579 24.552c-16.45 10.47-22.876 31.103-15.278 49.062l9.913 23.432c7.748 18.313 22.978 32.525 41.783 38.991l73.722 25.357 8.43-28.826z" fill="#d4806b"/><path d="m257.215 347.6c-4.469 0-8.89-1.987-11.847-5.787l-69.355-89.092c-16.479-21.168-25.555-47.6-25.555-74.428 0-36.382 19.508-70.395 50.912-88.766 31.04-18.155 69.885-18.695 101.376-1.404l.383.21c36.026 19.781 58.417 57.619 58.417 98.737 0 15.68 1.398 33.764 11.544 59.692 3.019 7.715-.788 16.416-8.503 19.435-7.716 3.019-16.416-.788-19.435-8.503-11.99-30.643-13.606-52.896-13.606-70.624 0-30.168-16.428-57.93-42.872-72.449l-.382-.21c-22.279-12.233-49.788-11.849-71.774 1.011-22.242 13.012-36.06 37.103-36.06 62.871 0 20.185 6.829 40.072 19.228 55.999l69.355 89.093c5.089 6.537 3.915 15.961-2.622 21.05-2.739 2.132-5.985 3.165-9.204 3.165z" fill="#de9180"/><g fill="#d4806b"><path d="m373.089 246.763c-10.146-25.929-11.544-44.013-11.544-59.692 0-41.119-22.391-78.956-58.417-98.737l-.383-.21c-14.514-7.969-30.59-12.141-46.744-12.556v29.99c11.169.406 22.26 3.347 32.29 8.854l.382.21c26.444 14.52 42.872 42.281 42.872 72.449 0 17.728 1.616 39.981 13.606 70.624 3.019 7.715 11.719 11.521 19.435 8.503 7.714-3.019 11.521-11.72 8.503-19.435z"/><path d="m257.215 347.6c3.22 0 6.466-1.033 9.203-3.165 6.537-5.089 7.711-14.513 2.622-21.05l-13.039-16.75v40.897c.404.033.808.068 1.214.068z"/></g></svg>