<svg xmlns="http://www.w3.org/2000/svg" height="512pt" version="1.1" viewBox="-80 0 512 512.001" width="512pt">
<g id="surface1">
<path d="M 299.882812 212.117188 C 249.164062 161.394531 232.207031 87.738281 255.636719 19.894531 C 257.222656 15.3125 256.492188 10.246094 253.675781 6.292969 C 250.859375 2.34375 246.308594 0 241.460938 0 L 239.933594 0 C 178.507812 0 128.535156 49.972656 128.535156 111.398438 L 128.535156 207.792969 C 128.535156 217.238281 120.847656 224.925781 111.402344 224.925781 C 101.957031 224.925781 94.269531 217.238281 94.269531 207.792969 C 94.269531 202.109375 91.054688 196.914062 85.972656 194.375 C 80.886719 191.835938 74.804688 192.386719 70.261719 195.800781 C 48.925781 211.824219 31.25 232.820312 19.144531 256.519531 C 6.441406 281.382812 0 308.234375 0 336.335938 C 0 433.195312 78.804688 512 175.667969 512 C 272.53125 512 351.335938 433.195312 351.335938 336.332031 C 351.335938 289.410156 333.0625 245.296875 299.882812 212.117188 Z M 299.882812 212.117188 " style=" stroke:none;fill-rule:nonzero;fill:rgb(100%,55.686275%,11.372549%);fill-opacity:1;" />
<path d="M 299.882812 212.117188 C 249.164062 161.394531 232.207031 87.738281 255.636719 19.894531 C 257.222656 15.3125 256.492188 10.246094 253.675781 6.292969 C 250.859375 2.34375 246.308594 0 241.460938 0 L 239.933594 0 C 216.007812 0 193.820312 7.585938 175.644531 20.472656 L 175.644531 512 C 175.652344 512 175.660156 512 175.667969 512 C 272.53125 512 351.335938 433.195312 351.335938 336.332031 C 351.335938 289.410156 333.0625 245.296875 299.882812 212.117188 Z M 299.882812 212.117188 " style=" stroke:none;fill-rule:nonzero;fill:rgb(100%,42.745098%,8.235294%);fill-opacity:1;" />
<path d="M 245.097656 344.386719 L 186.277344 285.5625 C 183.460938 282.746094 179.648438 281.167969 175.667969 281.167969 C 171.691406 281.167969 167.875 282.75 165.0625 285.5625 L 106.238281 344.386719 C 87.695312 362.929688 77.480469 387.585938 77.480469 413.8125 C 77.480469 440.039062 87.695312 464.695312 106.238281 483.242188 C 124.785156 501.785156 149.445312 512 175.671875 512 C 201.898438 512 226.554688 501.789062 245.097656 483.242188 C 283.378906 444.957031 283.378906 382.664062 245.097656 344.386719 Z M 245.097656 344.386719 " style=" stroke:none;fill-rule:nonzero;fill:rgb(100%,81.960784%,16.862745%);fill-opacity:1;" />
<path d="M 245.097656 344.386719 L 186.277344 285.5625 C 183.460938 282.746094 179.648438 281.167969 175.667969 281.167969 C 175.660156 281.167969 175.652344 281.167969 175.648438 281.167969 L 175.648438 512 C 175.65625 512 175.664062 512 175.671875 512 C 201.898438 512 226.554688 501.785156 245.097656 483.242188 C 283.378906 444.957031 283.378906 382.664062 245.097656 344.386719 Z M 245.097656 344.386719 " style=" stroke:none;fill-rule:nonzero;fill:rgb(100%,55.686275%,11.372549%);fill-opacity:1;" />
</g>
</svg>