<svg id="Capa_1" enable-background="new 0 0 512 512" height="512" viewBox="0 0 512 512" width="512" xmlns="http://www.w3.org/2000/svg"><path d="m199.001 482.367-19.44-159.404c-3.168-25.975-25.22-45.502-51.388-45.502h-57.271c-26.167 0-48.22 19.527-51.388 45.502l-19.439 159.404c-.73 5.989 3.943 11.267 9.977 11.267h178.972c6.033 0 10.707-5.278 9.977-11.267z" fill="#5e6b75"/><circle cx="100.197" cy="194.584" fill="#5e6b75" r="52.725"/><path d="m199.001 482.367-19.44-159.404c-3.168-25.975-25.22-45.501-51.388-45.501h-28.635v216.173h89.486c6.033-.001 10.707-5.279 9.977-11.268z" fill="#4f5961"/><path d="m152.922 194.584c0-29.119-23.606-52.725-52.725-52.725-.221 0-.439.014-.659.017v105.417c.22.003.438.017.659.017 29.119-.001 52.725-23.607 52.725-52.726z" fill="#4f5961"/><path d="m511.925 482.367-19.44-159.404c-3.168-25.975-25.22-45.502-51.388-45.502h-57.271c-26.167 0-48.22 19.527-51.388 45.502l-19.44 159.404c-.73 5.989 3.943 11.267 9.977 11.267h178.972c6.034 0 10.708-5.278 9.978-11.267z" fill="#5e6b75"/><circle cx="413.121" cy="194.584" fill="#5e6b75" r="52.725"/><path d="m511.925 482.367-19.44-159.404c-3.168-25.975-25.22-45.501-51.388-45.501h-28.636v216.173h89.486c6.034-.001 10.708-5.279 9.978-11.268z" fill="#4f5961"/><path d="m465.846 194.584c0-29.119-23.606-52.725-52.725-52.725-.221 0-.439.014-.659.017v105.417c.22.003.438.017.659.017 29.119-.001 52.725-23.607 52.725-52.726z" fill="#4f5961"/><path d="m338.682 97.064c27.316-28.975 8.184-77.321-31.614-78.666-.633-.021-1.268-.032-1.906-.032-21.296 0-39.778 12.013-49.065 29.627-9.287-17.614-27.768-29.627-49.065-29.627-.704 0-1.404.013-2.102.039-39.691 1.479-58.872 49.482-31.763 78.509l68.163 72.986c7.733 8.28 20.852 8.311 28.624.067z" fill="#ff405c"/><path d="m307.068 18.398c-.633-.021-1.268-.032-1.906-.032-21.296 0-39.778 12.013-49.065 29.627-.031-.06-.065-.117-.097-.177v128.296c5.093-.084 10.161-2.122 13.954-6.146l68.728-72.903c27.315-28.974 8.184-77.32-31.614-78.665z" fill="#b03345"/></svg>